# https://github.com/mikedh/trimesh

o body
v -10.78294563 -3.00520372 -0.80268067 1.00000000 0.86274510 0.78431373
v -10.82856464 -1.62640464 -1.48840570 1.00000000 0.86274510 0.78431373
v -11.18915462 0.00000000 -1.37470412 1.00000000 0.86274510 0.78431373
v -12.61513710 -1.62640464 0.90299451 1.00000000 0.86274510 0.78431373
v -12.28683090 0.00000000 -0.20229933 1.00000000 0.86274510 0.78431373
v -13.08302307 0.00000000 1.19251418 1.00000000 0.86274510 0.78431373
v -11.44297218 -3.00520372 0.29843080 1.00000000 0.86274510 0.78431373
v -11.86135387 -1.62640464 -0.39692596 1.00000000 0.86274510 0.78431373
v -10.45281982 -3.92648792 0.77701730 1.00000000 0.86274510 0.78431373
v -11.83572960 -3.00520372 1.52065170 1.00000000 0.86274510 0.78431373
v -10.56058407 -3.92648792 1.85315847 1.00000000 0.86274510 0.78431373
v -9.89013004 -3.00520372 -1.72515750 1.00000000 0.86274510 0.78431373
v -9.57224751 -1.62640464 -2.31281352 1.00000000 0.86274510 0.78431373
v -8.81116962 -3.00520372 -2.42080665 1.00000000 0.86274510 0.78431373
v -8.77917862 -3.92648792 -1.93799758 1.00000000 0.86274510 0.78431373
v -9.53881073 -3.92648792 -1.16815901 1.00000000 0.86274510 0.78431373
v -8.98168468 -4.25000000 -0.63227129 1.00000000 0.86274510 0.78431373
v -9.84972286 0.00000000 -2.26090431 1.00000000 0.86274510 0.78431373
v -7.86617899 -3.92648792 -2.51776099 1.00000000 0.86274510 0.78431373
v -7.82362080 -4.25000000 -2.08739114 1.00000000 0.86274510 0.78431373
v -8.15988731 -1.62640464 -2.82586479 1.00000000 0.86274510 0.78431373
v -7.60243320 -3.00520372 -2.85328555 1.00000000 0.86274510 0.78431373
v -6.84637308 -3.92648792 -2.87788343 1.00000000 0.86274510 0.78431373
v -7.03161001 -4.25000000 -2.58572888 1.00000000 0.86274510 0.78431373
v -8.48472023 -4.25000000 -1.42514503 1.00000000 0.86274510 0.78431373
v -8.34142208 0.00000000 -2.81267786 1.00000000 0.86274510 0.78431373
v -10.10633850 -3.92648792 -0.24750409 1.00000000 0.86274510 0.78431373
v -9.28953934 -4.25000000 0.25138465 1.00000000 0.86274510 0.78431373
v -9.39281273 -4.25000000 1.18141520 1.00000000 0.86274510 0.78431373
v -9.28631592 -4.25000000 2.11108208 1.00000000 0.86274510 0.78431373
v -9.52301216 6.42857122 -0.42233706 1.00000000 0.86274510 0.78431373
v -8.98975563 6.42857122 -1.28470087 1.00000000 0.86274510 0.78431373
v -8.27682304 6.42857122 -2.00564528 1.00000000 0.86274510 0.78431373
v -7.42047167 6.42857122 -2.54850554 1.00000000 0.86274510 0.78431373
v -9.84947300 6.42857122 0.53758866 1.00000000 0.86274510 0.78431373
v -9.95253563 6.42857122 1.54625726 1.00000000 0.86274510 0.78431373
v -13.04942226 -1.62640464 2.34152770 1.00000000 0.86274510 0.78431373
v -11.94069862 -3.00520372 2.80012965 1.00000000 0.86274510 0.78431373
v -13.14088154 -1.62640464 3.84140015 1.00000000 0.86274510 0.78431373
v -13.53440571 0.00000000 2.73383808 1.00000000 0.86274510 0.78431373
v -13.61641884 0.00000000 4.33780193 1.00000000 0.86274510 0.78431373
v -10.42413807 -3.92648792 2.92604017 1.00000000 0.86274510 0.78431373
v -11.75239563 -3.00520372 4.07002115 1.00000000 0.86274510 0.78431373
v -12.88460255 -1.62640464 5.32204247 1.00000000 0.86274510 0.78431373
v -12.29435062 -1.62640464 6.70391989 1.00000000 0.86274510 0.78431373
v -13.32459831 0.00000000 5.91712666 1.00000000 0.86274510 0.78431373
v -11.28065681 -3.00520372 5.26398325 1.00000000 0.86274510 0.78431373
v -10.55012798 -3.00520372 6.31963968 1.00000000 0.86274510 0.78431373
v -8.97539997 -4.25000000 2.99366546 1.00000000 0.86274510 0.78431373
v -10.05043793 -3.92648792 3.94094992 1.00000000 0.86274510 0.78431373
v -8.47568989 -4.25000000 3.78481197 1.00000000 0.86274510 0.78431373
v -6.91159964 0.00000000 3.34737945 1.00000000 0.86274510 0.78431373
v -6.95477295 -0.93160778 4.19794321 1.00000000 0.86274510 0.78431373
v -6.95477295 0.93160778 4.19794321 1.00000000 0.86274510 0.78431373
v -9.45854187 -3.92648792 4.84613085 1.00000000 0.86274510 0.78431373
v -6.90143585 0.00000000 5.14177847 1.00000000 0.86274510 0.78431373
v -9.82695770 6.42857122 2.55237079 1.00000000 0.86274510 0.78431373
v -9.47912598 6.42857122 3.50476122 1.00000000 0.86274510 0.78431373
v -8.92673111 6.42857122 4.35499239 1.00000000 0.86274510 0.78431373
v -7.16964531 12.85714245 -2.10048389 1.00000000 0.86274510 0.78431373
v -7.80519772 12.85714245 -1.44910562 1.00000000 0.86274510 0.78431373
v -8.27713871 12.85714245 -0.67097205 1.00000000 0.86274510 0.78431373
v -8.56106091 12.85714245 0.19367170 1.00000000 0.86274510 0.78431373
v -8.64227867 12.85714245 1.10010660 1.00000000 0.86274510 0.78431373
v -8.51659203 12.85714245 2.00145173 1.00000000 0.86274510 0.78431373
v -6.97892380 19.28571510 -1.59151399 1.00000000 0.86274510 0.78431373
v -7.40409517 19.28571510 -0.88536948 1.00000000 0.86274510 0.78431373
v -7.72789717 19.28571510 0.72007054 1.00000000 0.86274510 0.78431373
v -7.65816069 19.28571510 -0.10123817 1.00000000 0.86274510 0.78431373
v -7.60967541 19.28571510 1.53581238 1.00000000 0.86274510 0.78431373
v -8.19050121 12.85714245 2.85109019 1.00000000 0.86274510 0.78431373
v -7.68087149 12.85714245 3.60507822 1.00000000 0.86274510 0.78431373
v -7.30964804 19.28571510 2.30353284 1.00000000 0.86274510 0.78431373
v -6.84342957 19.28571510 2.98327661 1.00000000 0.86274510 0.78431373
v -6.14848900 -4.25000000 -2.89511442 1.00000000 0.86274510 0.78431373
v -6.32706785 -3.00520372 -3.00000000 1.00000000 0.86274510 0.78431373
v -6.66735363 -1.62640464 -3.00000000 1.00000000 0.86274510 0.78431373
v -5.77176571 -3.92648792 -3.00000000 1.00000000 0.86274510 0.78431373
v -5.21863890 -4.25000000 -3.00000000 1.00000000 0.86274510 0.78431373
v -6.74632454 0.00000000 -3.00000000 1.00000000 0.86274510 0.78431373
v -5.46917677 -1.52462018 1.88959146 1.00000000 0.86274510 0.78431373
v -5.99062061 0.00000000 1.94417393 1.00000000 0.86274510 0.78431373
v -5.22376823 0.00000000 1.67593431 1.00000000 0.86274510 0.78431373
v -5.46917677 1.52462018 1.88959146 1.00000000 0.86274510 0.78431373
v -4.58150053 -1.50737309 1.82476830 1.00000000 0.86274510 0.78431373
v -4.32569695 0.00000000 1.73152816 1.00000000 0.86274510 0.78431373
v -4.58150053 1.50737309 1.82476830 1.00000000 0.86274510 0.78431373
v -3.54228950 -0.93160778 2.06558681 1.00000000 0.86274510 0.78431373
v -3.54228950 0.93160778 2.06558681 1.00000000 0.86274510 0.78431373
v -6.46425390 6.42857122 -2.88567281 1.00000000 0.86274510 0.78431373
v -5.45679998 6.42857122 -3.00000000 1.00000000 0.86274510 0.78431373
v -6.27493191 -2.90000010 3.18028569 1.00000000 0.86274510 0.78431373
v -6.26826477 -1.52462018 2.38891697 1.00000000 0.86274510 0.78431373
v -6.71565914 -1.50737309 3.15833855 1.00000000 0.86274510 0.78431373
v -5.61864853 -3.04924035 2.53945374 1.00000000 0.86274510 0.78431373
v -5.62296820 -4.07186937 3.41155005 1.00000000 0.86274510 0.78431373
v -6.00996971 -3.99150753 4.24081564 1.00000000 0.86274510 0.78431373
v -6.65958595 -2.46688724 4.09027863 1.00000000 0.86274510 0.78431373
v -5.54588223 -4.25000000 3.63878870 1.00000000 0.86274510 0.78431373
v -5.45482683 -4.25000000 3.49896717 1.00000000 0.86274510 0.78431373
v -5.80813646 -4.25000000 4.33256102 1.00000000 0.86274510 0.78431373
v -5.82160997 -4.25000000 4.69299126 1.00000000 0.86274510 0.78431373
v -6.56787872 0.00000000 2.51582766 1.00000000 0.86274510 0.78431373
v -6.26826477 1.52462018 2.38891697 1.00000000 0.86274510 0.78431373
v -6.71565914 1.50737309 3.15833855 1.00000000 0.86274510 0.78431373
v -4.75497675 -2.90000010 2.23051214 1.00000000 0.86274510 0.78431373
v -4.83291960 -4.07186937 2.91787314 1.00000000 0.86274510 0.78431373
v -4.82805824 -4.25000000 3.10731888 1.00000000 0.86274510 0.78431373
v -4.66247129 -4.25000000 3.08677268 1.00000000 0.86274510 0.78431373
v -3.91793036 -3.99150753 2.93356466 1.00000000 0.86274510 0.78431373
v -3.92394805 -4.25000000 3.15518975 1.00000000 0.86274510 0.78431373
v -3.59408903 -4.25000000 3.30108190 1.00000000 0.86274510 0.78431373
v -3.76845908 -2.46688724 2.28370214 1.00000000 0.86274510 0.78431373
v -6.25181961 -3.40915442 5.29231548 1.00000000 0.86274510 0.78431373
v -6.73495770 -1.79229856 5.18035650 1.00000000 0.86274510 0.78431373
v -5.75870180 -4.25000000 5.40658665 1.00000000 0.86274510 0.78431373
v -5.58355856 -4.25000000 6.06358147 1.00000000 0.86274510 0.78431373
v -6.26888657 -2.51655364 6.21983528 1.00000000 0.86274510 0.78431373
v -5.62661886 -4.02392673 6.36866951 1.00000000 0.86274510 0.78431373
v -5.41947412 -4.25000000 6.46042013 1.00000000 0.86274510 0.78431373
v -5.59203911 -3.04924035 7.23725128 1.00000000 0.86274510 0.78431373
v -6.73495770 1.79229856 5.18035650 1.00000000 0.86274510 0.78431373
v -6.49366903 -0.94226712 6.34381485 1.00000000 0.86274510 0.78431373
v -6.49366903 0.94226712 6.34381485 1.00000000 0.86274510 0.78431373
v -6.27493191 2.90000010 3.18028569 1.00000000 0.86274510 0.78431373
v -5.61864853 3.04924035 2.53945374 1.00000000 0.86274510 0.78431373
v -5.62296820 4.07186937 3.41155005 1.00000000 0.86274510 0.78431373
v -6.65958595 2.46688724 4.09027863 1.00000000 0.86274510 0.78431373
v -6.00996971 3.99150753 4.24081564 1.00000000 0.86274510 0.78431373
v -5.21981430 5.00347710 4.59998846 1.00000000 0.86274510 0.78431373
v -4.75497675 2.90000010 2.23051214 1.00000000 0.86274510 0.78431373
v -4.83291960 4.07186937 2.91787314 1.00000000 0.86274510 0.78431373
v -3.76845908 2.46688724 2.28370214 1.00000000 0.86274510 0.78431373
v -3.91793036 3.99150753 2.93356466 1.00000000 0.86274510 0.78431373
v -4.80939674 4.93377447 3.83452725 1.00000000 0.86274510 0.78431373
v -3.94148922 5.00347710 3.80120254 1.00000000 0.86274510 0.78431373
v -6.25181961 3.40915442 5.29231548 1.00000000 0.86274510 0.78431373
v -5.49931383 4.69229841 5.46669483 1.00000000 0.86274510 0.78431373
v -6.26888657 2.51655364 6.21983528 1.00000000 0.86274510 0.78431373
v -5.59203911 3.04924035 7.23725128 1.00000000 0.86274510 0.78431373
v -5.62661886 4.02392673 6.36866951 1.00000000 0.86274510 0.78431373
v -4.79295111 4.93377447 6.73792553 1.00000000 0.86274510 0.78431373
v -4.55110168 5.51612759 5.68642616 1.00000000 0.86274510 0.78431373
v -4.18060303 5.57924271 4.84080696 1.00000000 0.86274510 0.78431373
v -3.50000000 5.80000019 5.92999983 1.00000000 0.86274510 0.78431373
v -3.74184990 5.51612759 6.98149967 1.00000000 0.86274510 0.78431373
v -2.86682892 -3.40915442 3.17713857 1.00000000 0.86274510 0.78431373
v -2.75566292 -1.79229856 2.69381738 1.00000000 0.86274510 0.78431373
v -2.98029137 -4.25000000 3.67044282 1.00000000 0.86274510 0.78431373
v -2.46656585 -4.25000000 4.11586809 1.00000000 0.86274510 0.78431373
v -2.17347789 -4.02392673 4.21090746 1.00000000 0.86274510 0.78431373
v -2.18181944 -4.25000000 4.43730879 1.00000000 0.86274510 0.78431373
v -2.02569747 -2.51655364 3.56839657 1.00000000 0.86274510 0.78431373
v -2.71735764 0.00000000 2.52727604 1.00000000 0.86274510 0.78431373
v -2.75566292 1.79229856 2.69381738 1.00000000 0.86274510 0.78431373
v -1.81572747 -0.94226712 3.42071247 1.00000000 0.86274510 0.78431373
v -1.81572747 0.94226712 3.42071247 1.00000000 0.86274510 0.78431373
v -1.40796089 -3.04924035 4.62274885 1.00000000 0.86274510 0.78431373
v -1.13426697 -1.58494592 4.45172596 1.00000000 0.86274510 0.78431373
v -1.04066050 0.00000000 4.39323425 1.00000000 0.86274510 0.78431373
v -1.13426697 1.58494592 4.45172596 1.00000000 0.86274510 0.78431373
v -1.58052540 -4.25000000 5.39958000 1.00000000 0.86274510 0.78431373
v -1.37338090 -4.02392673 5.49133062 1.00000000 0.86274510 0.78431373
v -1.41644120 -4.25000000 5.79641867 1.00000000 0.86274510 0.78431373
v -0.73111320 -2.51655364 5.64016438 1.00000000 0.86274510 0.78431373
v -1.24129832 -4.25000000 6.45341349 1.00000000 0.86274510 0.78431373
v -1.17839003 -4.25000000 7.16700840 1.00000000 0.86274510 0.78431373
v -0.74818063 -3.40915442 6.56768465 1.00000000 0.86274510 0.78431373
v -0.26504230 -1.79229856 6.67964315 1.00000000 0.86274510 0.78431373
v -0.50633079 -0.94226712 5.51618528 1.00000000 0.86274510 0.78431373
v -0.50633079 0.94226712 5.51618528 1.00000000 0.86274510 0.78431373
v -0.09856418 0.00000000 6.71822166 1.00000000 0.86274510 0.78431373
v -0.26504230 1.79229856 6.67964315 1.00000000 0.86274510 0.78431373
v -2.86682892 3.40915442 3.17713857 1.00000000 0.86274510 0.78431373
v -3.03997445 4.69229841 3.92992902 1.00000000 0.86274510 0.78431373
v -2.02569747 2.51655364 3.56839657 1.00000000 0.86274510 0.78431373
v -2.17347789 4.02392673 4.21090746 1.00000000 0.86274510 0.78431373
v -1.40796089 3.04924035 4.62274885 1.00000000 0.86274510 0.78431373
v -2.20704865 4.93377447 5.12207460 1.00000000 0.86274510 0.78431373
v -3.25815010 5.51612759 4.87850046 1.00000000 0.86274510 0.78431373
v -2.81939673 5.57924271 7.01919270 1.00000000 0.86274510 0.78431373
v -2.44889855 5.51612759 6.17357397 1.00000000 0.86274510 0.78431373
v -1.78018582 5.00347710 7.26001120 1.00000000 0.86274510 0.78431373
v -1.37338090 4.02392673 5.49133062 1.00000000 0.86274510 0.78431373
v -0.73111320 2.51655364 5.64016438 1.00000000 0.86274510 0.78431373
v -1.50068617 4.69229841 6.39330482 1.00000000 0.86274510 0.78431373
v -0.74818063 3.40915442 6.56768465 1.00000000 0.86274510 0.78431373
v -6.40335274 12.85714245 -2.59141779 1.00000000 0.86274510 0.78431373
v -5.54595232 12.85714245 -2.89651632 1.00000000 0.86274510 0.78431373
v -4.64178896 12.85714245 -3.00000000 1.00000000 0.86274510 0.78431373
v -6.40477324 19.28571510 -2.18292117 1.00000000 0.86274510 0.78431373
v -5.71152496 19.28571510 -2.62881160 1.00000000 0.86274510 0.78431373
v -4.93525887 19.28571510 -2.90597963 1.00000000 0.86274510 0.78431373
v -4.11637497 19.28571510 -3.00000000 1.00000000 0.86274510 0.78431373
v -12.67482376 0.00000000 7.38587427 1.00000000 0.86274510 0.78431373
v -11.40183258 -1.62640464 7.91280127 1.00000000 0.86274510 0.78431373
v -11.70245266 0.00000000 8.66412354 1.00000000 0.86274510 0.78431373
v -5.86573315 -1.58494592 7.40827417 1.00000000 0.86274510 0.78431373
v -5.95933962 0.00000000 7.46676588 1.00000000 0.86274510 0.78431373
v -5.18427229 -0.94226712 8.43928719 1.00000000 0.86274510 0.78431373
v -5.86573315 1.58494592 7.40827417 1.00000000 0.86274510 0.78431373
v -5.18427229 0.94226712 8.43928719 1.00000000 0.86274510 0.78431373
v -4.81818056 -4.25000000 7.42269135 1.00000000 0.86274510 0.78431373
v -4.82652187 -4.02392673 7.64909267 1.00000000 0.86274510 0.78431373
v -4.53343391 -4.25000000 7.74413204 1.00000000 0.86274510 0.78431373
v -4.97430229 -2.51655364 8.29160309 1.00000000 0.86274510 0.78431373
v -4.01970863 -4.25000000 8.18955708 1.00000000 0.86274510 0.78431373
v -3.40591097 -4.25000000 8.55891800 1.00000000 0.86274510 0.78431373
v -4.13317108 -3.40915442 8.68286133 1.00000000 0.86274510 0.78431373
v -4.24433708 -1.79229856 9.16618252 1.00000000 0.86274510 0.78431373
v -4.28264236 0.00000000 9.33272362 1.00000000 0.86274510 0.78431373
v -3.45771050 -0.93160778 9.79441357 1.00000000 0.86274510 0.78431373
v -4.24433708 1.79229856 9.16618252 1.00000000 0.86274510 0.78431373
v -3.45771050 0.93160778 9.79441357 1.00000000 0.86274510 0.78431373
v -3.68677640 -3.92648792 11.80720615 1.00000000 0.86274510 0.78431373
v -4.97430229 2.51655364 8.29160309 1.00000000 0.86274510 0.78431373
v -4.82652187 4.02392673 7.64909267 1.00000000 0.86274510 0.78431373
v -3.96002555 4.69229841 7.93007088 1.00000000 0.86274510 0.78431373
v -4.13317108 3.40915442 8.68286133 1.00000000 0.86274510 0.78431373
v -3.46993065 6.42857122 10.97789383 1.00000000 0.86274510 0.78431373
v -3.07605195 -4.25000000 8.70481014 1.00000000 0.86274510 0.78431373
v -3.08206964 -3.99150753 8.92643547 1.00000000 0.86274510 0.78431373
v -3.23154092 -2.46688724 9.57629776 1.00000000 0.86274510 0.78431373
v -2.33752871 -4.25000000 8.77322769 1.00000000 0.86274510 0.78431373
v -2.17194176 -4.25000000 8.75268173 1.00000000 0.86274510 0.78431373
v -2.16708016 -4.07186937 8.94212723 1.00000000 0.86274510 0.78431373
v -2.24502325 -2.90000010 9.62948799 1.00000000 0.86274510 0.78431373
v -1.19186378 -4.25000000 7.52743864 1.00000000 0.86274510 0.78431373
v -0.99003041 -3.99150753 7.61918402 1.00000000 0.86274510 0.78431373
v -1.45411813 -4.25000000 8.22121143 1.00000000 0.86274510 0.78431373
v -1.54517341 -4.25000000 8.36103344 1.00000000 0.86274510 0.78431373
v -1.37703192 -4.07186937 8.44845009 1.00000000 0.86274510 0.78431373
v -0.72506797 -2.90000010 8.67971420 1.00000000 0.86274510 0.78431373
v -0.34041399 -2.46688724 7.76972103 1.00000000 0.86274510 0.78431373
v -1.38135159 -3.04924035 9.32054615 1.00000000 0.86274510 0.78431373
v -1.53082299 -1.52462018 9.97040844 1.00000000 0.86274510 0.78431373
v -0.28434089 -1.50737309 8.70166111 1.00000000 0.86274510 0.78431373
v -0.73173517 -1.52462018 9.47108269 1.00000000 0.86274510 0.78431373
v -0.04522698 -0.93160778 7.66205692 1.00000000 0.86274510 0.78431373
v -0.08840034 0.00000000 8.51262093 1.00000000 0.86274510 0.78431373
v -0.04522698 0.93160778 7.66205692 1.00000000 0.86274510 0.78431373
v -1.00937951 0.00000000 9.91582584 1.00000000 0.86274510 0.78431373
v -1.53082299 1.52462018 9.97040844 1.00000000 0.86274510 0.78431373
v -0.43212140 0.00000000 9.34417248 1.00000000 0.86274510 0.78431373
v -0.28434089 1.50737309 8.70166111 1.00000000 0.86274510 0.78431373
v -0.73173517 1.52462018 9.47108269 1.00000000 0.86274510 0.78431373
v -3.25705171 -4.25000000 10.29564095 1.00000000 0.86274510 0.78431373
v -2.74012303 -4.25000000 10.83389950 1.00000000 0.86274510 0.78431373
v -2.13560843 -4.25000000 11.27150631 1.00000000 0.86274510 0.78431373
v -2.41849947 -1.50737309 10.03523159 1.00000000 0.86274510 0.78431373
v -3.09565663 -3.92648792 12.40460205 1.00000000 0.86274510 0.78431373
v -2.67430282 0.00000000 10.12847137 1.00000000 0.86274510 0.78431373
v -1.77623177 0.00000000 10.18406582 1.00000000 0.86274510 0.78431373
v -2.41849947 1.50737309 10.03523159 1.00000000 0.86274510 0.78431373
v -1.46283066 -4.25000000 11.59447384 1.00000000 0.86274510 0.78431373
v -0.74329478 -4.25000000 11.79247761 1.00000000 0.86274510 0.78431373
v -2.19060326 4.93377447 8.02547264 1.00000000 0.86274510 0.78431373
v -3.23154092 2.46688724 9.57629776 1.00000000 0.86274510 0.78431373
v -3.08206964 3.99150753 8.92643547 1.00000000 0.86274510 0.78431373
v -2.24502325 2.90000010 9.62948799 1.00000000 0.86274510 0.78431373
v -2.16708016 4.07186937 8.94212723 1.00000000 0.86274510 0.78431373
v -3.05851078 5.00347710 8.05879784 1.00000000 0.86274510 0.78431373
v -0.99003041 3.99150753 7.61918402 1.00000000 0.86274510 0.78431373
v -1.37703192 4.07186937 8.44845009 1.00000000 0.86274510 0.78431373
v -0.34041399 2.46688724 7.76972103 1.00000000 0.86274510 0.78431373
v -0.72506797 2.90000010 8.67971420 1.00000000 0.86274510 0.78431373
v -1.38135159 3.04924035 9.32054615 1.00000000 0.86274510 0.78431373
v -2.91462231 6.42857122 11.54224110 1.00000000 0.86274510 0.78431373
v -2.26892972 6.42857122 12.00042820 1.00000000 0.86274510 0.78431373
v -1.55287600 6.42857122 12.33824730 1.00000000 0.86274510 0.78431373
v -0.78866655 6.42857122 12.54522228 1.00000000 0.86274510 0.78431373
v -4.22306061 -3.00520372 13.53528023 1.00000000 0.86274510 0.78431373
v -4.73447943 -1.62640464 15.03940392 1.00000000 0.86274510 0.78431373
v -3.53489971 -3.00520372 14.19701576 1.00000000 0.86274510 0.78431373
v -3.94914412 -1.62640464 15.75190639 1.00000000 0.86274510 0.78431373
v -4.95612812 0.00000000 15.66031170 1.00000000 0.86274510 0.78431373
v -4.12748098 0.00000000 16.39182663 1.00000000 0.86274510 0.78431373
v -2.40921116 -3.92648792 12.88947105 1.00000000 0.86274510 0.78431373
v -2.74460673 -3.00520372 14.73264313 1.00000000 0.86274510 0.78431373
v -1.87501526 -3.00520372 15.12668610 1.00000000 0.86274510 0.78431373
v -1.64857745 -3.92648792 13.24688148 1.00000000 0.86274510 0.78431373
v -0.83717859 -3.92648792 13.46582699 1.00000000 0.86274510 0.78431373
v -3.05817080 -1.62640464 16.32686615 1.00000000 0.86274510 0.78431373
v -2.08539271 -1.62640464 16.74890137 1.00000000 0.86274510 0.78431373
v -3.19245267 0.00000000 16.98130798 1.00000000 0.86274510 0.78431373
v -2.17514205 0.00000000 17.41356850 1.00000000 0.86274510 0.78431373
v -0.95124960 -3.00520372 15.36775970 1.00000000 0.86274510 0.78431373
v -1.05683124 -1.62640464 17.00672531 1.00000000 0.86274510 0.78431373
v -1.10176957 0.00000000 17.67746162 1.00000000 0.86274510 0.78431373
v -3.03908253 12.85714245 9.02372169 1.00000000 0.86274510 0.78431373
v -2.54714203 12.85714245 9.50671196 1.00000000 0.86274510 0.78431373
v -1.97960210 12.85714245 9.89809799 1.00000000 0.86274510 0.78431373
v -1.35330749 12.85714245 10.18626499 1.00000000 0.86274510 0.78431373
v -0.68684655 12.85714245 10.36265850 1.00000000 0.86274510 0.78431373
v -2.72705460 19.28571510 7.71946716 1.00000000 0.86274510 0.78431373
v -2.28378630 19.28571510 8.14909172 1.00000000 0.86274510 0.78431373
v -1.77385378 19.28571510 8.49699020 1.00000000 0.86274510 0.78431373
v -1.21214211 19.28571510 8.75300694 1.00000000 0.86274510 0.78431373
v -0.61504769 19.28571510 8.90966892 1.00000000 0.86274510 0.78431373
v -6.81561661 25.71428490 -0.28410879 1.00000000 0.86274510 0.78431373
v -6.86835957 25.71428490 0.48080945 1.00000000 0.86274510 0.78431373
v -5.67147541 25.71428490 -2.23245192 1.00000000 0.86274510 0.78431373
v -6.20083475 25.71428490 -1.67778051 1.00000000 0.86274510 0.78431373
v -6.58909464 25.71428490 -1.01661789 1.00000000 0.86274510 0.78431373
v -5.02915525 25.71428490 -2.65114784 1.00000000 0.86274510 0.78431373
v -4.30801725 25.71428490 -2.91161251 1.00000000 0.86274510 0.78431373
v -3.54639459 25.71428490 -3.00000000 1.00000000 0.86274510 0.78431373
v -6.74452019 25.71428490 1.23747683 1.00000000 0.86274510 0.78431373
v -6.45068073 25.71428490 1.94567180 1.00000000 0.86274510 0.78431373
v -5.40725946 32.14285660 -1.70756423 1.00000000 0.86274510 0.78431373
v -5.76706696 32.14285660 -1.06455445 1.00000000 0.86274510 0.78431373
v -4.29466867 32.14285660 -2.65825510 1.00000000 0.86274510 0.78431373
v -4.90724373 32.14285660 -2.24877334 1.00000000 0.86274510 0.78431373
v -3.60340762 32.14285660 -2.91336608 1.00000000 0.86274510 0.78431373
v -5.96677065 32.14285660 -0.35530001 1.00000000 0.86274510 0.78431373
v -5.99532652 32.14285660 0.38097969 1.00000000 0.86274510 0.78431373
v -5.85115671 32.14285660 1.10357106 1.00000000 0.86274510 0.78431373
v -5.54223251 32.14285660 1.77251732 1.00000000 0.86274510 0.78431373
v -2.87168527 32.14285660 -3.00000000 1.00000000 0.86274510 0.78431373
v -6.00246096 25.71428490 2.56774974 1.00000000 0.86274510 0.78431373
v -5.08563662 32.14285660 2.35082817 1.00000000 0.86274510 0.78431373
v -2.45606661 25.71428490 6.45247698 1.00000000 0.86274510 0.78431373
v -2.05134392 25.71428490 6.82786036 1.00000000 0.86274510 0.78431373
v -1.59010267 25.71428490 7.13112497 1.00000000 0.86274510 0.78431373
v -1.08505082 25.71428490 7.35391521 1.00000000 0.86274510 0.78431373
v -2.21395159 32.14285660 5.21805620 1.00000000 0.86274510 0.78431373
v -1.84021139 32.14285660 5.53680897 1.00000000 0.86274510 0.78431373
v -1.42124856 32.14285660 5.79323673 1.00000000 0.86274510 0.78431373
v -0.96735877 32.14285660 5.98103714 1.00000000 0.86274510 0.78431373
v -0.48969647 32.14285660 6.09559631 1.00000000 0.86274510 0.78431373
v -3.96863842 38.57143021 -2.23040962 1.00000000 0.86274510 0.78431373
v -4.45295095 38.57143021 -1.67871702 1.00000000 0.86274510 0.78431373
v -4.79031801 38.57143021 -1.02671456 1.00000000 0.86274510 0.78431373
v -4.96092272 38.57143021 -0.31269953 1.00000000 0.86274510 0.78431373
v -4.95474434 38.57143021 0.42138857 1.00000000 0.86274510 0.78431373
v -4.77214622 38.57143021 1.13243103 1.00000000 0.86274510 0.78431373
v -4.42385340 38.57143021 1.77866292 1.00000000 0.86274510 0.78431373
v -3.49052024 45.00000000 -0.16186474 1.00000000 0.86274510 0.78431373
v -3.43443537 45.00000000 0.59192675 1.00000000 0.86274510 0.78431373
v -3.36582756 38.57143021 -2.64938760 1.00000000 0.86274510 0.78431373
v -2.67992568 38.57143021 -2.91104054 1.00000000 0.86274510 0.78431373
v -1.95122159 38.57143021 -3.00000000 1.00000000 0.86274510 0.78431373
v -2.56144500 45.00000000 -2.17751694 1.00000000 0.86274510 0.78431373
v -1.95188928 45.00000000 -2.62449431 1.00000000 0.86274510 0.78431373
v -3.03966284 45.00000000 -1.59214950 1.00000000 0.86274510 0.78431373
v -3.35607409 45.00000000 -0.90568686 1.00000000 0.86274510 0.78431373
v -1.24983120 45.00000000 -2.90460420 1.00000000 0.86274510 0.78431373
v -0.50000000 45.00000000 -3.00000000 1.00000000 0.86274510 0.78431373
v -3.19139242 45.00000000 1.30766225 1.00000000 0.86274510 0.78431373
v -2.77687645 45.00000000 1.93974102 1.00000000 0.86274510 0.78431373
v -3.93032384 38.57143021 2.32212591 1.00000000 0.86274510 0.78431373
v -1.97910213 38.57143021 4.00617456 1.00000000 0.86274510 0.78431373
v -1.63361919 38.57143021 4.26384830 1.00000000 0.86274510 0.78431373
v -1.25506282 38.57143021 4.46988106 1.00000000 0.86274510 0.78431373
v -0.85109699 38.57143021 4.62010098 1.00000000 0.86274510 0.78431373
v -0.42990026 38.57143021 4.71146727 1.00000000 0.86274510 0.78431373
v -2.21729684 45.00000000 2.44789219 1.00000000 0.86274510 0.78431373
v -1.71729672 45.00000000 2.79789233 1.00000000 0.86274510 0.78431373
v -1.40559018 45.00000000 2.98885250 1.00000000 0.86274510 0.78431373
v -1.07293904 45.00000000 3.14041114 1.00000000 0.86274510 0.78431373
v -0.72430015 45.00000000 3.25030994 1.00000000 0.86274510 0.78431373
v -0.36486852 45.00000000 3.31691122 1.00000000 0.86274510 0.78431373
v -0.55010366 25.71428490 7.49009275 1.00000000 0.86274510 0.78431373
v 0.00000000 -4.25000000 0.00000000 1.00000000 0.86274510 0.78431373
v 5.21863890 -4.25000000 -3.00000000 1.00000000 0.86274510 0.78431373
v 5.77176571 -3.92648792 -3.00000000 1.00000000 0.86274510 0.78431373
v 6.14848900 -4.25000000 -2.89511442 1.00000000 0.86274510 0.78431373
v 6.32706785 -3.00520372 -3.00000000 1.00000000 0.86274510 0.78431373
v 6.66735363 -1.62640464 -3.00000000 1.00000000 0.86274510 0.78431373
v 6.74632454 0.00000000 -3.00000000 1.00000000 0.86274510 0.78431373
v 4.58150053 -1.50737309 1.82476830 1.00000000 0.86274510 0.78431373
v 3.54228950 -0.93160778 2.06558681 1.00000000 0.86274510 0.78431373
v 3.54228950 0.93160778 2.06558681 1.00000000 0.86274510 0.78431373
v 4.32569695 0.00000000 1.73152816 1.00000000 0.86274510 0.78431373
v 4.58150053 1.50737309 1.82476830 1.00000000 0.86274510 0.78431373
v 5.46917677 -1.52462018 1.88959146 1.00000000 0.86274510 0.78431373
v 5.22376823 0.00000000 1.67593431 1.00000000 0.86274510 0.78431373
v 5.46917677 1.52462018 1.88959146 1.00000000 0.86274510 0.78431373
v 5.99062061 0.00000000 1.94417393 1.00000000 0.86274510 0.78431373
v 5.45679998 6.42857122 -3.00000000 1.00000000 0.86274510 0.78431373
v 6.46425390 6.42857122 -2.88567281 1.00000000 0.86274510 0.78431373
v 1.40796089 -3.04924035 4.62274885 1.00000000 0.86274510 0.78431373
v 1.13426697 -1.58494592 4.45172596 1.00000000 0.86274510 0.78431373
v 1.04066050 0.00000000 4.39323425 1.00000000 0.86274510 0.78431373
v 1.13426697 1.58494592 4.45172596 1.00000000 0.86274510 0.78431373
v 2.86682892 -3.40915442 3.17713857 1.00000000 0.86274510 0.78431373
v 2.75566292 -1.79229856 2.69381738 1.00000000 0.86274510 0.78431373
v 2.46656585 -4.25000000 4.11586809 1.00000000 0.86274510 0.78431373
v 2.17347789 -4.02392673 4.21090746 1.00000000 0.86274510 0.78431373
v 2.18181944 -4.25000000 4.43730879 1.00000000 0.86274510 0.78431373
v 2.02569747 -2.51655364 3.56839657 1.00000000 0.86274510 0.78431373
v 2.98029137 -4.25000000 3.67044282 1.00000000 0.86274510 0.78431373
v 1.81572747 -0.94226712 3.42071247 1.00000000 0.86274510 0.78431373
v 1.81572747 0.94226712 3.42071247 1.00000000 0.86274510 0.78431373
v 2.71735764 0.00000000 2.52727604 1.00000000 0.86274510 0.78431373
v 2.75566292 1.79229856 2.69381738 1.00000000 0.86274510 0.78431373
v 0.73111320 -2.51655364 5.64016438 1.00000000 0.86274510 0.78431373
v 1.58052540 -4.25000000 5.39958000 1.00000000 0.86274510 0.78431373
v 1.37338090 -4.02392673 5.49133062 1.00000000 0.86274510 0.78431373
v 1.41644120 -4.25000000 5.79641867 1.00000000 0.86274510 0.78431373
v 0.74818063 -3.40915442 6.56768465 1.00000000 0.86274510 0.78431373
v 0.26504230 -1.79229856 6.67964315 1.00000000 0.86274510 0.78431373
v 1.24129832 -4.25000000 6.45341349 1.00000000 0.86274510 0.78431373
v 1.17839003 -4.25000000 7.16700840 1.00000000 0.86274510 0.78431373
v 0.50633079 -0.94226712 5.51618528 1.00000000 0.86274510 0.78431373
v 0.50633079 0.94226712 5.51618528 1.00000000 0.86274510 0.78431373
v 0.09856418 0.00000000 6.71822166 1.00000000 0.86274510 0.78431373
v 0.26504230 1.79229856 6.67964315 1.00000000 0.86274510 0.78431373
v 1.40796089 3.04924035 4.62274885 1.00000000 0.86274510 0.78431373
v 2.86682892 3.40915442 3.17713857 1.00000000 0.86274510 0.78431373
v 2.02569747 2.51655364 3.56839657 1.00000000 0.86274510 0.78431373
v 2.17347789 4.02392673 4.21090746 1.00000000 0.86274510 0.78431373
v 3.03997445 4.69229841 3.92992902 1.00000000 0.86274510 0.78431373
v 0.73111320 2.51655364 5.64016438 1.00000000 0.86274510 0.78431373
v 1.37338090 4.02392673 5.49133062 1.00000000 0.86274510 0.78431373
v 0.74818063 3.40915442 6.56768465 1.00000000 0.86274510 0.78431373
v 1.50068617 4.69229841 6.39330482 1.00000000 0.86274510 0.78431373
v 2.20704865 4.93377447 5.12207460 1.00000000 0.86274510 0.78431373
v 3.25815010 5.51612759 4.87850046 1.00000000 0.86274510 0.78431373
v 2.44889855 5.51612759 6.17357397 1.00000000 0.86274510 0.78431373
v 1.78018582 5.00347710 7.26001120 1.00000000 0.86274510 0.78431373
v 2.81939673 5.57924271 7.01919270 1.00000000 0.86274510 0.78431373
v 3.59408903 -4.25000000 3.30108190 1.00000000 0.86274510 0.78431373
v 3.91793036 -3.99150753 2.93356466 1.00000000 0.86274510 0.78431373
v 3.92394805 -4.25000000 3.15518975 1.00000000 0.86274510 0.78431373
v 3.76845908 -2.46688724 2.28370214 1.00000000 0.86274510 0.78431373
v 4.75497675 -2.90000010 2.23051214 1.00000000 0.86274510 0.78431373
v 4.66247129 -4.25000000 3.08677268 1.00000000 0.86274510 0.78431373
v 4.83291960 -4.07186937 2.91787314 1.00000000 0.86274510 0.78431373
v 4.82805824 -4.25000000 3.10731888 1.00000000 0.86274510 0.78431373
v 5.61864853 -3.04924035 2.53945374 1.00000000 0.86274510 0.78431373
v 5.62296820 -4.07186937 3.41155005 1.00000000 0.86274510 0.78431373
v 6.27493191 -2.90000010 3.18028569 1.00000000 0.86274510 0.78431373
v 6.26826477 -1.52462018 2.38891697 1.00000000 0.86274510 0.78431373
v 6.71565914 -1.50737309 3.15833855 1.00000000 0.86274510 0.78431373
v 5.45482683 -4.25000000 3.49896717 1.00000000 0.86274510 0.78431373
v 5.54588223 -4.25000000 3.63878870 1.00000000 0.86274510 0.78431373
v 5.80813646 -4.25000000 4.33256102 1.00000000 0.86274510 0.78431373
v 5.82160997 -4.25000000 4.69299126 1.00000000 0.86274510 0.78431373
v 6.00996971 -3.99150753 4.24081564 1.00000000 0.86274510 0.78431373
v 6.65958595 -2.46688724 4.09027863 1.00000000 0.86274510 0.78431373
v 6.56787872 0.00000000 2.51582766 1.00000000 0.86274510 0.78431373
v 6.26826477 1.52462018 2.38891697 1.00000000 0.86274510 0.78431373
v 6.71565914 1.50737309 3.15833855 1.00000000 0.86274510 0.78431373
v 5.75870180 -4.25000000 5.40658665 1.00000000 0.86274510 0.78431373
v 5.58355856 -4.25000000 6.06358147 1.00000000 0.86274510 0.78431373
v 6.25181961 -3.40915442 5.29231548 1.00000000 0.86274510 0.78431373
v 6.73495770 -1.79229856 5.18035650 1.00000000 0.86274510 0.78431373
v 5.41947412 -4.25000000 6.46042013 1.00000000 0.86274510 0.78431373
v 5.62661886 -4.02392673 6.36866951 1.00000000 0.86274510 0.78431373
v 5.59203911 -3.04924035 7.23725128 1.00000000 0.86274510 0.78431373
v 6.26888657 -2.51655364 6.21983528 1.00000000 0.86274510 0.78431373
v 6.73495770 1.79229856 5.18035650 1.00000000 0.86274510 0.78431373
v 6.49366903 -0.94226712 6.34381485 1.00000000 0.86274510 0.78431373
v 6.49366903 0.94226712 6.34381485 1.00000000 0.86274510 0.78431373
v 3.76845908 2.46688724 2.28370214 1.00000000 0.86274510 0.78431373
v 3.91793036 3.99150753 2.93356466 1.00000000 0.86274510 0.78431373
v 4.75497675 2.90000010 2.23051214 1.00000000 0.86274510 0.78431373
v 4.83291960 4.07186937 2.91787314 1.00000000 0.86274510 0.78431373
v 4.80939674 4.93377447 3.83452725 1.00000000 0.86274510 0.78431373
v 3.94148922 5.00347710 3.80120254 1.00000000 0.86274510 0.78431373
v 5.61864853 3.04924035 2.53945374 1.00000000 0.86274510 0.78431373
v 5.62296820 4.07186937 3.41155005 1.00000000 0.86274510 0.78431373
v 6.27493191 2.90000010 3.18028569 1.00000000 0.86274510 0.78431373
v 6.65958595 2.46688724 4.09027863 1.00000000 0.86274510 0.78431373
v 6.00996971 3.99150753 4.24081564 1.00000000 0.86274510 0.78431373
v 5.21981430 5.00347710 4.59998846 1.00000000 0.86274510 0.78431373
v 4.79295111 4.93377447 6.73792553 1.00000000 0.86274510 0.78431373
v 4.18060303 5.57924271 4.84080696 1.00000000 0.86274510 0.78431373
v 3.50000000 5.80000019 5.92999983 1.00000000 0.86274510 0.78431373
v 4.55110168 5.51612759 5.68642616 1.00000000 0.86274510 0.78431373
v 3.74184990 5.51612759 6.98149967 1.00000000 0.86274510 0.78431373
v 5.49931383 4.69229841 5.46669483 1.00000000 0.86274510 0.78431373
v 6.25181961 3.40915442 5.29231548 1.00000000 0.86274510 0.78431373
v 5.59203911 3.04924035 7.23725128 1.00000000 0.86274510 0.78431373
v 5.62661886 4.02392673 6.36866951 1.00000000 0.86274510 0.78431373
v 6.26888657 2.51655364 6.21983528 1.00000000 0.86274510 0.78431373
v 4.64178896 12.85714245 -3.00000000 1.00000000 0.86274510 0.78431373
v 5.54595232 12.85714245 -2.89651632 1.00000000 0.86274510 0.78431373
v 6.40335274 12.85714245 -2.59141779 1.00000000 0.86274510 0.78431373
v 4.11637497 19.28571510 -3.00000000 1.00000000 0.86274510 0.78431373
v 4.93525887 19.28571510 -2.90597963 1.00000000 0.86274510 0.78431373
v 5.71152496 19.28571510 -2.62881160 1.00000000 0.86274510 0.78431373
v 6.40477324 19.28571510 -2.18292117 1.00000000 0.86274510 0.78431373
v 6.84637308 -3.92648792 -2.87788343 1.00000000 0.86274510 0.78431373
v 7.03161001 -4.25000000 -2.58572888 1.00000000 0.86274510 0.78431373
v 7.60243320 -3.00520372 -2.85328555 1.00000000 0.86274510 0.78431373
v 7.86617899 -3.92648792 -2.51776099 1.00000000 0.86274510 0.78431373
v 7.82362080 -4.25000000 -2.08739114 1.00000000 0.86274510 0.78431373
v 8.15988731 -1.62640464 -2.82586479 1.00000000 0.86274510 0.78431373
v 8.48472023 -4.25000000 -1.42514503 1.00000000 0.86274510 0.78431373
v 8.34142208 0.00000000 -2.81267786 1.00000000 0.86274510 0.78431373
v 8.81116962 -3.00520372 -2.42080665 1.00000000 0.86274510 0.78431373
v 8.77917862 -3.92648792 -1.93799758 1.00000000 0.86274510 0.78431373
v 9.89013004 -3.00520372 -1.72515750 1.00000000 0.86274510 0.78431373
v 9.57224751 -1.62640464 -2.31281352 1.00000000 0.86274510 0.78431373
v 8.98168468 -4.25000000 -0.63227129 1.00000000 0.86274510 0.78431373
v 9.53881073 -3.92648792 -1.16815901 1.00000000 0.86274510 0.78431373
v 9.84972286 0.00000000 -2.26090431 1.00000000 0.86274510 0.78431373
v 9.28953934 -4.25000000 0.25138465 1.00000000 0.86274510 0.78431373
v 10.10633850 -3.92648792 -0.24750409 1.00000000 0.86274510 0.78431373
v 9.28631592 -4.25000000 2.11108208 1.00000000 0.86274510 0.78431373
v 9.39281273 -4.25000000 1.18141520 1.00000000 0.86274510 0.78431373
v 7.42047167 6.42857122 -2.54850554 1.00000000 0.86274510 0.78431373
v 8.27682304 6.42857122 -2.00564528 1.00000000 0.86274510 0.78431373
v 8.98975563 6.42857122 -1.28470087 1.00000000 0.86274510 0.78431373
v 9.52301216 6.42857122 -0.42233706 1.00000000 0.86274510 0.78431373
v 9.84947300 6.42857122 0.53758866 1.00000000 0.86274510 0.78431373
v 9.95253563 6.42857122 1.54625726 1.00000000 0.86274510 0.78431373
v 10.78294563 -3.00520372 -0.80268067 1.00000000 0.86274510 0.78431373
v 10.82856464 -1.62640464 -1.48840570 1.00000000 0.86274510 0.78431373
v 11.18915462 0.00000000 -1.37470412 1.00000000 0.86274510 0.78431373
v 10.45281982 -3.92648792 0.77701730 1.00000000 0.86274510 0.78431373
v 11.44297218 -3.00520372 0.29843080 1.00000000 0.86274510 0.78431373
v 11.86135387 -1.62640464 -0.39692596 1.00000000 0.86274510 0.78431373
v 10.56058407 -3.92648792 1.85315847 1.00000000 0.86274510 0.78431373
v 11.83572960 -3.00520372 1.52065170 1.00000000 0.86274510 0.78431373
v 12.61513710 -1.62640464 0.90299451 1.00000000 0.86274510 0.78431373
v 12.28683090 0.00000000 -0.20229933 1.00000000 0.86274510 0.78431373
v 13.08302307 0.00000000 1.19251418 1.00000000 0.86274510 0.78431373
v 8.47568989 -4.25000000 3.78481197 1.00000000 0.86274510 0.78431373
v 6.91159964 0.00000000 3.34737945 1.00000000 0.86274510 0.78431373
v 6.95477295 -0.93160778 4.19794321 1.00000000 0.86274510 0.78431373
v 6.95477295 0.93160778 4.19794321 1.00000000 0.86274510 0.78431373
v 8.97539997 -4.25000000 2.99366546 1.00000000 0.86274510 0.78431373
v 10.05043793 -3.92648792 3.94094992 1.00000000 0.86274510 0.78431373
v 6.90143585 0.00000000 5.14177847 1.00000000 0.86274510 0.78431373
v 9.45854187 -3.92648792 4.84613085 1.00000000 0.86274510 0.78431373
v 9.82695770 6.42857122 2.55237079 1.00000000 0.86274510 0.78431373
v 8.92673111 6.42857122 4.35499239 1.00000000 0.86274510 0.78431373
v 9.47912598 6.42857122 3.50476122 1.00000000 0.86274510 0.78431373
v 10.42413807 -3.92648792 2.92604017 1.00000000 0.86274510 0.78431373
v 11.75239563 -3.00520372 4.07002115 1.00000000 0.86274510 0.78431373
v 11.94069862 -3.00520372 2.80012965 1.00000000 0.86274510 0.78431373
v 13.04942226 -1.62640464 2.34152770 1.00000000 0.86274510 0.78431373
v 13.14088154 -1.62640464 3.84140015 1.00000000 0.86274510 0.78431373
v 13.53440571 0.00000000 2.73383808 1.00000000 0.86274510 0.78431373
v 13.61641884 0.00000000 4.33780193 1.00000000 0.86274510 0.78431373
v 11.28065681 -3.00520372 5.26398325 1.00000000 0.86274510 0.78431373
v 10.55012798 -3.00520372 6.31963968 1.00000000 0.86274510 0.78431373
v 12.88460255 -1.62640464 5.32204247 1.00000000 0.86274510 0.78431373
v 12.29435062 -1.62640464 6.70391989 1.00000000 0.86274510 0.78431373
v 13.32459831 0.00000000 5.91712666 1.00000000 0.86274510 0.78431373
v 7.16964531 12.85714245 -2.10048389 1.00000000 0.86274510 0.78431373
v 7.80519772 12.85714245 -1.44910562 1.00000000 0.86274510 0.78431373
v 8.27713871 12.85714245 -0.67097205 1.00000000 0.86274510 0.78431373
v 8.56106091 12.85714245 0.19367170 1.00000000 0.86274510 0.78431373
v 8.64227867 12.85714245 1.10010660 1.00000000 0.86274510 0.78431373
v 8.51659203 12.85714245 2.00145173 1.00000000 0.86274510 0.78431373
v 6.97892380 19.28571510 -1.59151399 1.00000000 0.86274510 0.78431373
v 7.40409517 19.28571510 -0.88536948 1.00000000 0.86274510 0.78431373
v 7.65816069 19.28571510 -0.10123817 1.00000000 0.86274510 0.78431373
v 7.72789717 19.28571510 0.72007054 1.00000000 0.86274510 0.78431373
v 7.60967541 19.28571510 1.53581238 1.00000000 0.86274510 0.78431373
v 8.19050121 12.85714245 2.85109019 1.00000000 0.86274510 0.78431373
v 7.68087149 12.85714245 3.60507822 1.00000000 0.86274510 0.78431373
v 7.30964804 19.28571510 2.30353284 1.00000000 0.86274510 0.78431373
v 6.84342957 19.28571510 2.98327661 1.00000000 0.86274510 0.78431373
v 0.72506797 -2.90000010 8.67971420 1.00000000 0.86274510 0.78431373
v 0.34041399 -2.46688724 7.76972103 1.00000000 0.86274510 0.78431373
v 0.99003041 -3.99150753 7.61918402 1.00000000 0.86274510 0.78431373
v 1.19186378 -4.25000000 7.52743864 1.00000000 0.86274510 0.78431373
v 1.45411813 -4.25000000 8.22121143 1.00000000 0.86274510 0.78431373
v 1.37703192 -4.07186937 8.44845009 1.00000000 0.86274510 0.78431373
v 1.54517341 -4.25000000 8.36103344 1.00000000 0.86274510 0.78431373
v 0.28434089 -1.50737309 8.70166111 1.00000000 0.86274510 0.78431373
v 0.73173517 -1.52462018 9.47108269 1.00000000 0.86274510 0.78431373
v 1.38135159 -3.04924035 9.32054615 1.00000000 0.86274510 0.78431373
v 1.53082299 -1.52462018 9.97040844 1.00000000 0.86274510 0.78431373
v 0.04522698 -0.93160778 7.66205692 1.00000000 0.86274510 0.78431373
v 0.08840034 0.00000000 8.51262093 1.00000000 0.86274510 0.78431373
v 0.04522698 0.93160778 7.66205692 1.00000000 0.86274510 0.78431373
v 0.43212140 0.00000000 9.34417248 1.00000000 0.86274510 0.78431373
v 0.28434089 1.50737309 8.70166111 1.00000000 0.86274510 0.78431373
v 0.73173517 1.52462018 9.47108269 1.00000000 0.86274510 0.78431373
v 1.00937951 0.00000000 9.91582584 1.00000000 0.86274510 0.78431373
v 1.53082299 1.52462018 9.97040844 1.00000000 0.86274510 0.78431373
v 2.17194176 -4.25000000 8.75268173 1.00000000 0.86274510 0.78431373
v 2.33752871 -4.25000000 8.77322769 1.00000000 0.86274510 0.78431373
v 2.16708016 -4.07186937 8.94212723 1.00000000 0.86274510 0.78431373
v 2.24502325 -2.90000010 9.62948799 1.00000000 0.86274510 0.78431373
v 3.07605195 -4.25000000 8.70481014 1.00000000 0.86274510 0.78431373
v 3.08206964 -3.99150753 8.92643547 1.00000000 0.86274510 0.78431373
v 3.23154092 -2.46688724 9.57629776 1.00000000 0.86274510 0.78431373
v 0.00000000 -4.25000000 11.85918999 1.00000000 0.86274510 0.78431373
v 0.74329478 -4.25000000 11.79247761 1.00000000 0.86274510 0.78431373
v 1.46283066 -4.25000000 11.59447384 1.00000000 0.86274510 0.78431373
v 2.13560843 -4.25000000 11.27150631 1.00000000 0.86274510 0.78431373
v 2.41849947 -1.50737309 10.03523159 1.00000000 0.86274510 0.78431373
v 3.25705171 -4.25000000 10.29564095 1.00000000 0.86274510 0.78431373
v 2.74012303 -4.25000000 10.83389950 1.00000000 0.86274510 0.78431373
v 3.09565663 -3.92648792 12.40460205 1.00000000 0.86274510 0.78431373
v 1.77623177 0.00000000 10.18406582 1.00000000 0.86274510 0.78431373
v 2.41849947 1.50737309 10.03523159 1.00000000 0.86274510 0.78431373
v 2.67430282 0.00000000 10.12847137 1.00000000 0.86274510 0.78431373
v 0.34041399 2.46688724 7.76972103 1.00000000 0.86274510 0.78431373
v 0.72506797 2.90000010 8.67971420 1.00000000 0.86274510 0.78431373
v 0.99003041 3.99150753 7.61918402 1.00000000 0.86274510 0.78431373
v 1.37703192 4.07186937 8.44845009 1.00000000 0.86274510 0.78431373
v 1.38135159 3.04924035 9.32054615 1.00000000 0.86274510 0.78431373
v 2.19060326 4.93377447 8.02547264 1.00000000 0.86274510 0.78431373
v 2.24502325 2.90000010 9.62948799 1.00000000 0.86274510 0.78431373
v 2.16708016 4.07186937 8.94212723 1.00000000 0.86274510 0.78431373
v 3.23154092 2.46688724 9.57629776 1.00000000 0.86274510 0.78431373
v 3.08206964 3.99150753 8.92643547 1.00000000 0.86274510 0.78431373
v 3.05851078 5.00347710 8.05879784 1.00000000 0.86274510 0.78431373
v 0.78866655 6.42857122 12.54522228 1.00000000 0.86274510 0.78431373
v 1.55287600 6.42857122 12.33824730 1.00000000 0.86274510 0.78431373
v 2.26892972 6.42857122 12.00042820 1.00000000 0.86274510 0.78431373
v 2.91462231 6.42857122 11.54224110 1.00000000 0.86274510 0.78431373
v 3.40591097 -4.25000000 8.55891800 1.00000000 0.86274510 0.78431373
v 4.01970863 -4.25000000 8.18955708 1.00000000 0.86274510 0.78431373
v 4.53343391 -4.25000000 7.74413204 1.00000000 0.86274510 0.78431373
v 4.81818056 -4.25000000 7.42269135 1.00000000 0.86274510 0.78431373
v 4.82652187 -4.02392673 7.64909267 1.00000000 0.86274510 0.78431373
v 4.97430229 -2.51655364 8.29160309 1.00000000 0.86274510 0.78431373
v 4.13317108 -3.40915442 8.68286133 1.00000000 0.86274510 0.78431373
v 4.24433708 -1.79229856 9.16618252 1.00000000 0.86274510 0.78431373
v 3.45771050 -0.93160778 9.79441357 1.00000000 0.86274510 0.78431373
v 4.24433708 1.79229856 9.16618252 1.00000000 0.86274510 0.78431373
v 3.45771050 0.93160778 9.79441357 1.00000000 0.86274510 0.78431373
v 4.28264236 0.00000000 9.33272362 1.00000000 0.86274510 0.78431373
v 5.86573315 -1.58494592 7.40827417 1.00000000 0.86274510 0.78431373
v 5.18427229 -0.94226712 8.43928719 1.00000000 0.86274510 0.78431373
v 5.86573315 1.58494592 7.40827417 1.00000000 0.86274510 0.78431373
v 5.18427229 0.94226712 8.43928719 1.00000000 0.86274510 0.78431373
v 5.95933962 0.00000000 7.46676588 1.00000000 0.86274510 0.78431373
v 3.68677640 -3.92648792 11.80720615 1.00000000 0.86274510 0.78431373
v 3.96002555 4.69229841 7.93007088 1.00000000 0.86274510 0.78431373
v 4.97430229 2.51655364 8.29160309 1.00000000 0.86274510 0.78431373
v 4.82652187 4.02392673 7.64909267 1.00000000 0.86274510 0.78431373
v 4.13317108 3.40915442 8.68286133 1.00000000 0.86274510 0.78431373
v 3.46993065 6.42857122 10.97789383 1.00000000 0.86274510 0.78431373
v 0.00000000 -3.92648792 13.53956509 1.00000000 0.86274510 0.78431373
v 0.83717859 -3.92648792 13.46582699 1.00000000 0.86274510 0.78431373
v 1.64857745 -3.92648792 13.24688148 1.00000000 0.86274510 0.78431373
v 2.40921116 -3.92648792 12.88947105 1.00000000 0.86274510 0.78431373
v 1.87501526 -3.00520372 15.12668610 1.00000000 0.86274510 0.78431373
v 2.74460673 -3.00520372 14.73264313 1.00000000 0.86274510 0.78431373
v 0.00000000 -3.00520372 15.44889927 1.00000000 0.86274510 0.78431373
v 0.95124960 -3.00520372 15.36775970 1.00000000 0.86274510 0.78431373
v 0.00000000 -1.62640464 17.09344101 1.00000000 0.86274510 0.78431373
v 1.05683124 -1.62640464 17.00672531 1.00000000 0.86274510 0.78431373
v 0.00000000 0.00000000 17.76618767 1.00000000 0.86274510 0.78431373
v 1.10176957 0.00000000 17.67746162 1.00000000 0.86274510 0.78431373
v 3.05817080 -1.62640464 16.32686615 1.00000000 0.86274510 0.78431373
v 2.08539271 -1.62640464 16.74890137 1.00000000 0.86274510 0.78431373
v 2.17514205 0.00000000 17.41356850 1.00000000 0.86274510 0.78431373
v 3.19245267 0.00000000 16.98130798 1.00000000 0.86274510 0.78431373
v 0.00000000 6.42857122 12.61493492 1.00000000 0.86274510 0.78431373
v 4.22306061 -3.00520372 13.53528023 1.00000000 0.86274510 0.78431373
v 3.53489971 -3.00520372 14.19701576 1.00000000 0.86274510 0.78431373
v 4.73447943 -1.62640464 15.03940392 1.00000000 0.86274510 0.78431373
v 3.94914412 -1.62640464 15.75190639 1.00000000 0.86274510 0.78431373
v 4.12748098 0.00000000 16.39182663 1.00000000 0.86274510 0.78431373
v 4.95612812 0.00000000 15.66031170 1.00000000 0.86274510 0.78431373
v 1.97960210 12.85714245 9.89809799 1.00000000 0.86274510 0.78431373
v 2.54714203 12.85714245 9.50671196 1.00000000 0.86274510 0.78431373
v 3.03908253 12.85714245 9.02372169 1.00000000 0.86274510 0.78431373
v 0.00000000 12.85714245 10.42204380 1.00000000 0.86274510 0.78431373
v 0.68684655 12.85714245 10.36265850 1.00000000 0.86274510 0.78431373
v 1.35330749 12.85714245 10.18626499 1.00000000 0.86274510 0.78431373
v 0.00000000 19.28571510 8.96240234 1.00000000 0.86274510 0.78431373
v 0.61504769 19.28571510 8.90966892 1.00000000 0.86274510 0.78431373
v 1.21214211 19.28571510 8.75300694 1.00000000 0.86274510 0.78431373
v 1.77385378 19.28571510 8.49699020 1.00000000 0.86274510 0.78431373
v 2.28378630 19.28571510 8.14909172 1.00000000 0.86274510 0.78431373
v 2.72705460 19.28571510 7.71946716 1.00000000 0.86274510 0.78431373
v 11.40183258 -1.62640464 7.91280127 1.00000000 0.86274510 0.78431373
v 11.70245266 0.00000000 8.66412354 1.00000000 0.86274510 0.78431373
v 12.67482376 0.00000000 7.38587427 1.00000000 0.86274510 0.78431373
v 2.87168527 32.14285660 -3.00000000 1.00000000 0.86274510 0.78431373
v 3.54639459 25.71428490 -3.00000000 1.00000000 0.86274510 0.78431373
v 4.30801725 25.71428490 -2.91161251 1.00000000 0.86274510 0.78431373
v 5.02915525 25.71428490 -2.65114784 1.00000000 0.86274510 0.78431373
v 5.67147541 25.71428490 -2.23245192 1.00000000 0.86274510 0.78431373
v 6.20083475 25.71428490 -1.67778051 1.00000000 0.86274510 0.78431373
v 6.58909464 25.71428490 -1.01661789 1.00000000 0.86274510 0.78431373
v 6.74452019 25.71428490 1.23747683 1.00000000 0.86274510 0.78431373
v 6.45068073 25.71428490 1.94567180 1.00000000 0.86274510 0.78431373
v 3.60340762 32.14285660 -2.91336608 1.00000000 0.86274510 0.78431373
v 4.29466867 32.14285660 -2.65825510 1.00000000 0.86274510 0.78431373
v 4.90724373 32.14285660 -2.24877334 1.00000000 0.86274510 0.78431373
v 5.40725946 32.14285660 -1.70756423 1.00000000 0.86274510 0.78431373
v 5.76706696 32.14285660 -1.06455445 1.00000000 0.86274510 0.78431373
v 5.96677065 32.14285660 -0.35530001 1.00000000 0.86274510 0.78431373
v 5.99532652 32.14285660 0.38097969 1.00000000 0.86274510 0.78431373
v 5.85115671 32.14285660 1.10357106 1.00000000 0.86274510 0.78431373
v 5.54223251 32.14285660 1.77251732 1.00000000 0.86274510 0.78431373
v 1.08505082 25.71428490 7.35391521 1.00000000 0.86274510 0.78431373
v 1.59010267 25.71428490 7.13112497 1.00000000 0.86274510 0.78431373
v 2.45606661 25.71428490 6.45247698 1.00000000 0.86274510 0.78431373
v 2.05134392 25.71428490 6.82786036 1.00000000 0.86274510 0.78431373
v 0.96735877 32.14285660 5.98103714 1.00000000 0.86274510 0.78431373
v 1.42124856 32.14285660 5.79323673 1.00000000 0.86274510 0.78431373
v 0.00000000 32.14285660 6.13409805 1.00000000 0.86274510 0.78431373
v 0.48969647 32.14285660 6.09559631 1.00000000 0.86274510 0.78431373
v 2.21395159 32.14285660 5.21805620 1.00000000 0.86274510 0.78431373
v 1.84021139 32.14285660 5.53680897 1.00000000 0.86274510 0.78431373
v 6.00246096 25.71428490 2.56774974 1.00000000 0.86274510 0.78431373
v 5.08563662 32.14285660 2.35082817 1.00000000 0.86274510 0.78431373
v 1.95122159 38.57143021 -3.00000000 1.00000000 0.86274510 0.78431373
v 2.67992568 38.57143021 -2.91104054 1.00000000 0.86274510 0.78431373
v 3.36582756 38.57143021 -2.64938760 1.00000000 0.86274510 0.78431373
v 0.50000000 45.00000000 -3.00000000 1.00000000 0.86274510 0.78431373
v 1.24983120 45.00000000 -2.90460420 1.00000000 0.86274510 0.78431373
v 1.95188928 45.00000000 -2.62449431 1.00000000 0.86274510 0.78431373
v 2.56144500 45.00000000 -2.17751694 1.00000000 0.86274510 0.78431373
v 3.03966284 45.00000000 -1.59214950 1.00000000 0.86274510 0.78431373
v 3.35607409 45.00000000 -0.90568686 1.00000000 0.86274510 0.78431373
v 0.00000000 45.00000000 0.00000000 1.00000000 0.86274510 0.78431373
v 3.19139242 45.00000000 1.30766225 1.00000000 0.86274510 0.78431373
v 2.77687645 45.00000000 1.93974102 1.00000000 0.86274510 0.78431373
v 3.96863842 38.57143021 -2.23040962 1.00000000 0.86274510 0.78431373
v 4.45295095 38.57143021 -1.67871702 1.00000000 0.86274510 0.78431373
v 4.79031801 38.57143021 -1.02671456 1.00000000 0.86274510 0.78431373
v 4.96092272 38.57143021 -0.31269953 1.00000000 0.86274510 0.78431373
v 4.95474434 38.57143021 0.42138857 1.00000000 0.86274510 0.78431373
v 4.77214622 38.57143021 1.13243103 1.00000000 0.86274510 0.78431373
v 4.42385340 38.57143021 1.77866292 1.00000000 0.86274510 0.78431373
v 3.49052024 45.00000000 -0.16186474 1.00000000 0.86274510 0.78431373
v 3.43443537 45.00000000 0.59192675 1.00000000 0.86274510 0.78431373
v 0.00000000 38.57143021 4.74212933 1.00000000 0.86274510 0.78431373
v 0.42990026 38.57143021 4.71146727 1.00000000 0.86274510 0.78431373
v 0.85109699 38.57143021 4.62010098 1.00000000 0.86274510 0.78431373
v 1.25506282 38.57143021 4.46988106 1.00000000 0.86274510 0.78431373
v 1.63361919 38.57143021 4.26384830 1.00000000 0.86274510 0.78431373
v 1.97910213 38.57143021 4.00617456 1.00000000 0.86274510 0.78431373
v 0.00000000 45.00000000 3.33922243 1.00000000 0.86274510 0.78431373
v 0.36486852 45.00000000 3.31691122 1.00000000 0.86274510 0.78431373
v 0.72430015 45.00000000 3.25030994 1.00000000 0.86274510 0.78431373
v 1.07293904 45.00000000 3.14041114 1.00000000 0.86274510 0.78431373
v 1.40559018 45.00000000 2.98885250 1.00000000 0.86274510 0.78431373
v 1.71729672 45.00000000 2.79789233 1.00000000 0.86274510 0.78431373
v 2.21729684 45.00000000 2.44789219 1.00000000 0.86274510 0.78431373
v 3.93032384 38.57143021 2.32212591 1.00000000 0.86274510 0.78431373
v 6.81561661 25.71428490 -0.28410879 1.00000000 0.86274510 0.78431373
v 6.86835957 25.71428490 0.48080945 1.00000000 0.86274510 0.78431373
v 0.00000000 25.71428490 7.53590631 1.00000000 0.86274510 0.78431373
v 0.55010366 25.71428490 7.49009275 1.00000000 0.86274510 0.78431373
f 1 16 7
f 2 12 8
f 1 8 12
f 2 3 13
f 2 8 5
f 2 5 3
f 4 7 37
f 7 10 37
f 5 8 6
f 4 6 8
f 4 40 6
f 4 37 40
f 7 27 10
f 1 4 8
f 1 7 4
f 7 16 27
f 9 10 27
f 9 38 10
f 9 11 38
f 3 5 32
f 5 31 32
f 6 40 35
f 5 6 31
f 6 35 31
f 35 40 36
f 2 14 12
f 2 13 14
f 12 19 15
f 15 20 16
f 12 14 19
f 13 22 14
f 1 12 15
f 1 15 16
f 16 25 27
f 16 20 25
f 17 27 25
f 3 18 13
f 13 18 21
f 18 26 21
f 14 23 19
f 14 22 23
f 15 24 20
f 15 19 24
f 13 21 22
f 19 23 75
f 19 75 24
f 21 76 22
f 21 77 76
f 21 26 77
f 26 80 77
f 9 27 17
f 9 17 28
f 9 28 11
f 11 28 29
f 11 29 42
f 29 30 42
f 3 33 18
f 18 34 26
f 18 33 34
f 3 32 33
f 26 90 80
f 26 34 90
f 10 39 37
f 10 38 39
f 38 44 39
f 38 43 44
f 37 41 40
f 37 39 41
f 39 46 41
f 11 43 38
f 11 42 43
f 42 47 43
f 42 50 47
f 43 45 44
f 39 44 46
f 44 195 46
f 44 45 195
f 43 47 45
f 47 50 48
f 45 47 196
f 47 48 196
f 36 40 41
f 41 46 57
f 36 41 57
f 46 58 57
f 46 195 58
f 58 195 59
f 59 195 197
f 30 50 42
f 30 49 50
f 49 55 50
f 49 51 55
f 48 50 55
f 51 215 55
f 31 62 32
f 33 61 60
f 33 60 34
f 34 60 188
f 32 61 33
f 32 62 61
f 31 35 63
f 31 63 62
f 35 64 63
f 35 36 64
f 36 57 65
f 36 65 64
f 60 61 66
f 60 66 191
f 61 62 67
f 62 69 67
f 61 67 66
f 62 63 69
f 63 64 68
f 63 68 69
f 64 65 70
f 64 70 68
f 65 73 70
f 57 58 71
f 57 71 65
f 58 59 72
f 58 72 71
f 65 71 73
f 71 72 74
f 71 74 73
f 22 78 23
f 22 76 78
f 23 79 75
f 23 78 79
f 20 364 25
f 17 25 364
f 24 75 364
f 75 79 364
f 20 24 364
f 17 364 28
f 28 364 29
f 29 364 30
f 30 364 49
f 80 90 91
f 78 365 79
f 76 366 78
f 76 77 368
f 77 80 369
f 364 109 108
f 364 111 109
f 364 112 111
f 80 91 370
f 51 108 100
f 49 364 51
f 51 100 99
f 51 99 101
f 51 101 102
f 51 102 116
f 51 364 108
f 51 116 117
f 51 117 120
f 51 120 247
f 364 149 112
f 364 150 149
f 364 152 150
f 364 162 152
f 364 164 162
f 364 166 164
f 364 167 166
f 364 228 167
f 255 228 364
f 34 188 90
f 90 188 189
f 90 189 91
f 91 189 190
f 60 191 188
f 188 191 192
f 188 192 189
f 189 192 193
f 189 193 190
f 190 193 194
f 91 190 380
f 190 194 478
f 59 290 72
f 72 295 74
f 72 290 295
f 45 197 195
f 45 196 197
f 48 273 196
f 48 55 272
f 196 276 197
f 59 197 220
f 196 273 276
f 51 247 215
f 247 120 203
f 247 203 205
f 247 205 207
f 247 207 208
f 55 215 272
f 48 272 273
f 197 276 220
f 247 208 221
f 247 221 224
f 247 224 248
f 248 224 225
f 249 225 231
f 255 364 256
f 256 364 585
f 255 230 228
f 255 231 230
f 247 248 251
f 248 225 249
f 249 231 255
f 215 247 251
f 248 278 251
f 248 249 278
f 249 255 281
f 249 281 278
f 255 256 282
f 256 585 634
f 215 251 274
f 215 274 272
f 272 275 273
f 272 274 275
f 274 283 275
f 273 277 276
f 273 275 277
f 275 285 277
f 220 276 268
f 268 276 277
f 251 279 274
f 251 278 279
f 278 281 280
f 274 279 283
f 278 280 279
f 255 282 281
f 256 634 282
f 281 282 287
f 280 281 287
f 282 634 640
f 282 640 287
f 279 284 283
f 279 280 284
f 275 283 285
f 283 286 285
f 283 284 286
f 284 289 286
f 280 287 288
f 280 288 284
f 287 640 642
f 287 642 288
f 284 288 289
f 288 644 289
f 288 642 644
f 268 277 269
f 269 285 270
f 269 277 285
f 270 286 271
f 271 289 650
f 270 285 286
f 271 286 289
f 289 644 650
f 59 220 290
f 220 291 290
f 220 268 291
f 268 269 292
f 268 292 291
f 269 293 292
f 269 270 293
f 270 294 293
f 271 660 294
f 270 271 294
f 271 650 660
f 290 296 295
f 290 291 296
f 291 292 297
f 291 297 296
f 292 293 298
f 293 294 299
f 292 298 297
f 293 299 298
f 294 660 663
f 294 663 299
f 66 67 304
f 67 69 300
f 67 300 304
f 68 301 69
f 68 70 308
f 70 73 309
f 69 301 300
f 68 308 301
f 70 309 308
f 66 303 191
f 192 305 193
f 191 302 192
f 191 303 302
f 192 302 305
f 66 304 303
f 193 306 194
f 193 305 306
f 194 306 307
f 302 313 305
f 302 303 310
f 303 304 311
f 300 315 304
f 302 310 313
f 304 315 311
f 303 311 310
f 305 312 306
f 306 314 307
f 305 313 312
f 306 312 314
f 300 301 316
f 301 308 317
f 308 309 318
f 300 316 315
f 301 317 316
f 308 318 317
f 309 321 318
f 194 307 481
f 307 314 319
f 307 319 673
f 73 74 320
f 73 320 309
f 74 322 320
f 74 295 322
f 309 320 321
f 320 322 326
f 320 326 321
f 295 323 322
f 296 324 323
f 322 323 327
f 322 327 326
f 323 328 327
f 323 324 328
f 324 325 329
f 325 363 330
f 363 739 696
f 324 329 328
f 325 330 329
f 330 363 696
f 310 311 333
f 311 315 334
f 311 334 333
f 312 313 331
f 310 332 313
f 312 340 314
f 313 332 331
f 312 331 340
f 310 333 332
f 315 316 335
f 316 317 336
f 317 318 337
f 315 335 334
f 316 336 335
f 318 321 351
f 317 337 336
f 318 351 337
f 331 332 345
f 333 334 338
f 332 333 346
f 332 346 345
f 333 338 346
f 334 335 339
f 335 336 349
f 336 337 350
f 337 351 357
f 334 339 338
f 335 349 339
f 336 350 349
f 314 341 319
f 314 340 341
f 319 341 342
f 319 342 672
f 331 343 340
f 340 344 341
f 341 347 342
f 340 343 344
f 331 345 343
f 341 344 347
f 343 345 711
f 345 346 711
f 342 348 702
f 342 347 348
f 344 711 347
f 347 711 348
f 343 711 344
f 338 711 346
f 338 339 711
f 339 349 711
f 337 357 350
f 349 350 711
f 350 357 711
f 357 358 711
f 358 359 711
f 359 360 711
f 360 361 711
f 361 362 711
f 321 352 351
f 321 326 352
f 326 353 352
f 327 354 353
f 326 327 353
f 327 328 354
f 328 329 355
f 329 330 356
f 330 696 723
f 328 355 354
f 329 356 355
f 330 723 356
f 351 352 358
f 351 358 357
f 352 353 359
f 353 354 360
f 354 355 361
f 355 356 362
f 356 723 729
f 352 359 358
f 353 360 359
f 362 729 711
f 354 361 360
f 355 362 361
f 356 729 362
f 295 296 323
f 296 297 324
f 297 298 325
f 298 299 363
f 299 663 739
f 297 325 324
f 298 363 325
f 299 739 363
f 79 365 364
f 78 366 365
f 76 368 366
f 77 369 368
f 80 370 369
f 364 425 423
f 364 428 425
f 364 430 428
f 91 380 370
f 364 365 367
f 364 367 486
f 364 486 489
f 365 366 367
f 366 485 367
f 366 368 485
f 367 485 486
f 364 489 491
f 364 491 497
f 364 497 500
f 364 500 503
f 364 503 502
f 364 502 525
f 380 381 492
f 364 390 398
f 364 388 390
f 364 403 404
f 364 398 400
f 364 400 403
f 364 392 388
f 364 423 392
f 364 404 562
f 364 562 587
f 364 521 430
f 364 525 521
f 521 436 430
f 521 437 436
f 521 438 437
f 521 439 438
f 521 445 439
f 521 446 445
f 521 449 446
f 521 590 449
f 190 478 380
f 194 481 478
f 380 478 381
f 381 478 479
f 381 479 504
f 479 480 504
f 478 481 479
f 479 481 482
f 479 482 480
f 480 482 483
f 480 483 544
f 483 484 544
f 530 556 633
f 558 668 659
f 556 558 659
f 368 487 485
f 485 487 488
f 485 488 486
f 486 488 489
f 368 369 487
f 369 490 487
f 487 493 488
f 488 494 489
f 488 493 494
f 489 494 491
f 487 490 493
f 369 370 490
f 370 492 490
f 493 495 494
f 490 496 493
f 493 496 495
f 495 496 511
f 491 494 498
f 491 498 497
f 494 495 498
f 495 510 498
f 497 498 501
f 498 510 501
f 490 492 496
f 492 499 496
f 496 499 511
f 497 501 500
f 500 513 503
f 500 501 513
f 503 513 516
f 502 503 516
f 370 380 492
f 381 499 492
f 381 504 499
f 504 505 512
f 499 504 512
f 505 506 519
f 495 511 510
f 510 511 515
f 499 512 511
f 511 512 515
f 512 519 515
f 501 510 514
f 501 514 513
f 513 514 517
f 510 515 514
f 513 517 516
f 516 517 534
f 514 515 518
f 514 518 517
f 517 518 535
f 515 519 518
f 518 519 520
f 518 520 535
f 520 537 535
f 505 519 512
f 506 507 520
f 506 520 519
f 507 508 537
f 508 509 538
f 507 537 520
f 502 532 525
f 502 516 532
f 525 532 526
f 521 525 526
f 521 526 528
f 521 528 590
f 530 670 531
f 516 534 532
f 532 534 533
f 526 532 533
f 526 539 528
f 526 533 539
f 517 535 534
f 534 535 536
f 533 534 536
f 533 536 541
f 535 537 536
f 536 537 538
f 536 538 541
f 528 539 540
f 539 542 540
f 540 542 669
f 533 541 539
f 539 541 542
f 538 543 541
f 541 543 542
f 542 543 671
f 542 671 669
f 509 529 543
f 529 531 671
f 508 538 537
f 509 543 538
f 531 670 671
f 529 671 543
f 480 505 504
f 480 544 505
f 505 544 506
f 506 544 545
f 506 545 507
f 507 545 546
f 507 546 508
f 508 546 547
f 508 547 509
f 509 547 548
f 529 548 549
f 509 548 529
f 484 545 544
f 484 550 545
f 546 550 551
f 545 550 546
f 546 551 547
f 547 552 548
f 547 551 552
f 548 552 553
f 548 553 549
f 549 554 555
f 549 553 554
f 530 555 556
f 529 549 531
f 531 549 555
f 530 531 555
f 556 557 558
f 555 557 556
f 554 557 555
f 364 586 585
f 364 587 586
f 587 562 563
f 587 563 565
f 587 565 578
f 591 578 579
f 590 579 582
f 590 582 611
f 590 591 579
f 585 586 635
f 586 587 636
f 587 578 588
f 588 578 591
f 590 628 591
f 587 588 637
f 588 592 637
f 588 591 592
f 591 628 592
f 590 613 614
f 590 614 449
f 590 611 612
f 590 612 613
f 528 628 590
f 540 651 628
f 651 669 653
f 530 633 656
f 585 635 634
f 586 636 635
f 634 635 641
f 634 641 640
f 635 636 638
f 635 638 641
f 587 637 636
f 636 637 639
f 592 652 637
f 636 639 638
f 637 652 639
f 640 641 643
f 638 647 641
f 641 647 643
f 640 643 642
f 642 645 644
f 642 643 645
f 643 648 645
f 638 646 647
f 638 639 646
f 639 654 646
f 643 647 648
f 647 649 648
f 646 649 647
f 607 650 644
f 607 645 608
f 609 649 610
f 608 648 609
f 607 644 645
f 608 645 648
f 609 648 649
f 592 628 651
f 592 651 652
f 651 653 652
f 639 652 654
f 652 653 654
f 646 654 655
f 653 656 654
f 654 656 655
f 646 655 649
f 610 655 633
f 633 655 656
f 610 649 655
f 650 661 660
f 607 662 661
f 608 657 662
f 607 661 650
f 607 608 662
f 609 658 657
f 610 633 659
f 609 610 658
f 610 659 658
f 608 609 657
f 660 661 664
f 660 664 663
f 661 665 664
f 661 662 665
f 662 666 665
f 658 668 667
f 657 658 667
f 657 666 662
f 657 667 666
f 658 659 668
f 556 659 633
f 528 540 628
f 540 669 651
f 653 669 670
f 530 656 670
f 669 671 670
f 653 670 656
f 307 673 481
f 319 672 673
f 481 673 482
f 482 674 483
f 482 673 674
f 483 674 675
f 483 675 484
f 484 676 550
f 484 675 676
f 550 676 677
f 551 677 678
f 672 674 673
f 674 681 675
f 675 682 676
f 672 681 674
f 675 681 682
f 676 682 683
f 676 683 677
f 677 684 678
f 678 685 737
f 677 683 684
f 678 684 685
f 685 686 737
f 686 738 737
f 679 738 687
f 679 688 680
f 680 689 700
f 686 687 738
f 680 688 689
f 679 687 688
f 667 692 693
f 692 701 698
f 697 739 740
f 690 694 740
f 690 691 695
f 696 739 697
f 694 697 740
f 690 695 694
f 691 699 695
f 691 693 699
f 692 698 693
f 693 698 699
f 558 700 668
f 558 680 700
f 668 700 692
f 692 700 701
f 689 701 700
f 342 702 672
f 672 702 681
f 681 702 703
f 348 705 702
f 348 711 705
f 705 711 706
f 703 705 706
f 706 711 707
f 707 711 708
f 702 705 703
f 703 706 704
f 704 707 714
f 704 706 707
f 707 708 714
f 708 709 715
f 708 711 709
f 709 711 710
f 711 730 731
f 711 731 732
f 711 732 733
f 711 735 713
f 711 733 734
f 711 734 735
f 710 711 721
f 711 722 721
f 711 712 722
f 711 713 712
f 681 703 682
f 682 704 683
f 683 714 684
f 682 703 704
f 683 704 714
f 684 714 715
f 685 715 716
f 684 715 685
f 685 716 686
f 686 716 717
f 689 720 701
f 701 720 736
f 689 719 720
f 686 717 687
f 687 718 688
f 688 719 689
f 687 717 718
f 688 718 719
f 708 715 714
f 709 716 715
f 710 717 716
f 709 710 716
f 710 721 717
f 717 721 718
f 718 722 719
f 712 720 719
f 713 736 720
f 718 721 722
f 712 719 722
f 712 713 720
f 699 728 727
f 698 736 728
f 696 697 724
f 694 725 697
f 694 695 726
f 695 699 727
f 696 724 723
f 697 725 724
f 694 726 725
f 695 727 726
f 698 728 699
f 723 724 730
f 724 725 731
f 725 726 732
f 726 727 733
f 711 729 730
f 727 734 733
f 723 730 729
f 724 731 730
f 725 732 731
f 726 733 732
f 728 736 735
f 727 728 734
f 728 735 734
f 713 735 736
f 698 701 736
f 550 677 551
f 551 678 552
f 552 678 737
f 552 737 553
f 553 738 554
f 554 679 557
f 553 737 738
f 554 738 679
f 557 679 680
f 557 680 558
f 663 664 740
f 664 665 690
f 665 666 691
f 663 740 739
f 664 690 740
f 665 691 690
f 666 667 693
f 667 668 692
f 666 693 691
f 94 52 53
f 53 52 54
f 53 54 56
f 52 105 54
f 115 53 56
f 54 122 56
f 81 83 82
f 93 81 82
f 82 83 84
f 82 84 104
f 81 106 85
f 106 113 85
f 85 113 88
f 81 85 83
f 85 86 83
f 83 87 84
f 83 86 87
f 85 88 86
f 88 89 86
f 86 89 87
f 89 133 87
f 84 87 131
f 87 133 131
f 95 93 92
f 93 94 92
f 92 94 98
f 95 92 96
f 95 96 107
f 96 100 107
f 95 81 93
f 95 106 81
f 96 92 97
f 97 92 98
f 97 114 102
f 97 98 114
f 94 53 98
f 98 53 115
f 96 99 100
f 96 97 99
f 97 101 99
f 97 102 101
f 93 103 94
f 93 82 103
f 94 103 52
f 103 104 105
f 103 82 104
f 103 105 52
f 105 128 54
f 54 128 122
f 95 107 106
f 107 110 106
f 107 108 109
f 107 100 108
f 107 109 110
f 110 113 106
f 110 147 113
f 110 109 111
f 110 111 112
f 110 112 147
f 114 118 119
f 114 98 115
f 114 115 118
f 115 123 118
f 114 116 102
f 114 119 116
f 119 117 116
f 118 123 198
f 119 120 117
f 119 118 121
f 119 203 120
f 119 121 204
f 121 118 198
f 115 56 123
f 123 56 124
f 56 122 124
f 122 139 124
f 123 124 199
f 198 123 199
f 124 139 201
f 124 201 199
f 119 204 203
f 104 126 125
f 104 125 105
f 105 125 128
f 104 84 126
f 84 131 126
f 126 127 125
f 126 132 127
f 128 125 129
f 128 129 137
f 125 127 129
f 127 130 129
f 127 135 130
f 129 130 138
f 126 131 132
f 131 134 132
f 127 132 135
f 133 134 131
f 133 174 134
f 132 134 136
f 132 136 135
f 134 175 136
f 130 135 144
f 136 144 135
f 136 175 180
f 136 180 144
f 128 137 122
f 122 137 139
f 137 141 139
f 129 138 137
f 137 138 141
f 139 141 140
f 139 140 201
f 138 142 141
f 141 217 140
f 141 142 217
f 130 143 138
f 130 144 143
f 138 143 142
f 144 180 145
f 144 145 143
f 143 146 142
f 143 145 146
f 142 146 218
f 147 112 149
f 113 147 148
f 113 148 88
f 147 153 148
f 148 153 156
f 147 149 151
f 151 149 150
f 147 151 153
f 151 158 153
f 151 150 152
f 151 152 163
f 88 148 154
f 88 154 89
f 89 154 155
f 89 155 133
f 148 156 154
f 156 157 154
f 154 157 155
f 157 176 155
f 151 163 158
f 153 159 156
f 158 159 153
f 156 159 160
f 156 160 157
f 159 170 160
f 157 160 161
f 157 161 176
f 160 171 161
f 163 152 162
f 158 163 165
f 163 162 164
f 163 164 166
f 163 168 165
f 158 165 159
f 159 165 170
f 165 169 170
f 163 166 168
f 168 166 167
f 168 167 229
f 168 229 234
f 165 168 169
f 168 234 169
f 169 234 239
f 170 171 160
f 170 172 171
f 171 185 161
f 171 173 185
f 170 169 172
f 169 239 172
f 239 241 172
f 171 172 173
f 172 241 173
f 241 265 173
f 133 155 174
f 134 174 175
f 155 176 174
f 174 177 175
f 176 177 174
f 176 178 177
f 177 179 175
f 175 179 180
f 176 161 178
f 177 178 184
f 177 184 179
f 180 179 182
f 145 180 182
f 179 186 182
f 145 181 146
f 145 182 181
f 146 181 262
f 182 186 183
f 182 183 181
f 161 185 178
f 185 184 178
f 185 187 184
f 179 184 186
f 184 187 186
f 183 186 263
f 187 263 186
f 185 173 187
f 173 265 187
f 265 263 187
f 121 206 204
f 121 198 206
f 198 200 206
f 198 199 200
f 200 199 202
f 199 201 202
f 201 216 202
f 204 205 203
f 204 207 205
f 204 209 207
f 204 206 209
f 206 200 210
f 209 208 207
f 209 206 210
f 209 222 208
f 209 223 222
f 209 210 223
f 210 212 223
f 202 216 213
f 200 202 211
f 210 200 211
f 202 213 211
f 210 211 212
f 212 211 214
f 211 213 214
f 213 258 214
f 201 140 216
f 216 140 217
f 216 217 219
f 217 142 218
f 217 218 219
f 218 259 219
f 216 219 213
f 213 219 258
f 219 259 258
f 146 262 218
f 222 221 208
f 222 224 221
f 222 223 227
f 223 212 250
f 223 250 227
f 222 226 224
f 226 225 224
f 222 227 226
f 226 231 225
f 226 227 235
f 235 227 236
f 227 250 236
f 212 214 252
f 214 258 254
f 229 167 228
f 229 228 230
f 232 230 231
f 226 232 231
f 229 230 232
f 229 232 233
f 229 233 234
f 234 233 237
f 234 237 239
f 226 235 232
f 232 235 233
f 235 238 233
f 235 236 238
f 233 238 237
f 239 240 241
f 239 237 240
f 241 240 245
f 241 245 265
f 236 242 238
f 242 243 246
f 237 238 244
f 237 244 240
f 238 242 244
f 244 246 245
f 240 244 245
f 242 246 244
f 250 212 252
f 252 214 254
f 250 252 253
f 250 253 236
f 252 254 253
f 253 254 243
f 236 253 242
f 253 243 242
f 218 262 259
f 259 262 261
f 183 264 257
f 257 261 262
f 257 264 261
f 258 260 254
f 258 259 260
f 261 267 260
f 243 260 267
f 254 260 243
f 259 261 260
f 181 257 262
f 181 183 257
f 183 263 264
f 263 266 264
f 265 266 263
f 265 245 266
f 246 267 266
f 264 266 267
f 243 267 246
f 261 264 267
f 245 246 266
f 426 371 372
f 426 427 371
f 427 376 371
f 372 374 373
f 371 374 372
f 374 375 373
f 373 375 456
f 371 377 374
f 371 376 377
f 374 377 375
f 375 377 378
f 376 379 377
f 376 434 379
f 377 379 378
f 379 443 378
f 456 375 458
f 375 378 458
f 382 399 389
f 391 393 383
f 382 391 383
f 393 384 383
f 393 394 384
f 383 384 405
f 394 385 384
f 394 411 385
f 384 385 406
f 386 387 391
f 387 393 391
f 386 392 423
f 386 426 387
f 387 426 372
f 382 389 391
f 389 388 392
f 386 391 389
f 389 398 390
f 389 390 388
f 386 389 392
f 393 395 394
f 387 395 393
f 395 396 394
f 394 396 411
f 387 372 395
f 372 373 395
f 395 373 396
f 396 373 456
f 383 405 397
f 397 405 402
f 382 397 399
f 399 397 401
f 399 400 398
f 399 403 400
f 382 383 397
f 401 560 561
f 397 402 401
f 402 570 560
f 401 402 560
f 399 401 403
f 401 404 403
f 401 561 404
f 405 384 406
f 405 406 407
f 406 385 414
f 406 414 408
f 405 407 402
f 402 407 570
f 570 407 572
f 406 408 407
f 407 408 572
f 572 408 596
f 399 398 389
f 411 409 385
f 409 412 415
f 396 410 411
f 396 456 410
f 410 457 413
f 411 412 409
f 411 410 412
f 412 413 418
f 410 413 412
f 413 419 418
f 385 409 414
f 414 409 415
f 414 415 416
f 415 418 417
f 414 416 408
f 408 416 596
f 596 416 598
f 415 417 416
f 416 417 598
f 598 417 421
f 415 412 418
f 418 420 417
f 418 419 420
f 419 470 420
f 417 420 421
f 420 422 421
f 470 422 420
f 470 472 422
f 422 472 606
f 386 424 426
f 424 427 426
f 386 423 424
f 424 423 425
f 424 425 428
f 424 429 427
f 429 431 427
f 424 428 429
f 429 428 430
f 429 430 436
f 429 432 431
f 429 436 432
f 431 432 433
f 431 376 427
f 431 434 376
f 431 433 434
f 434 433 435
f 433 441 435
f 432 436 437
f 432 437 440
f 440 437 438
f 440 438 439
f 432 440 433
f 440 441 433
f 440 439 447
f 440 447 441
f 435 441 523
f 441 448 523
f 434 442 379
f 434 435 442
f 435 522 442
f 379 442 443
f 442 444 443
f 442 522 444
f 444 524 465
f 524 453 465
f 615 450 614
f 447 439 445
f 447 445 450
f 450 445 446
f 447 450 452
f 447 448 441
f 447 452 448
f 448 452 454
f 450 446 449
f 450 451 452
f 450 449 614
f 615 451 450
f 451 623 452
f 452 623 454
f 448 454 527
f 454 455 527
f 527 455 453
f 453 455 477
f 454 627 455
f 623 627 454
f 455 625 477
f 455 627 625
f 410 456 457
f 456 458 457
f 457 459 461
f 458 462 459
f 458 459 457
f 459 463 460
f 413 457 461
f 459 460 461
f 413 461 419
f 419 461 469
f 461 460 469
f 469 460 467
f 378 462 458
f 378 443 462
f 462 464 463
f 459 462 463
f 443 464 462
f 443 444 464
f 444 465 464
f 463 467 460
f 463 466 467
f 466 473 467
f 465 466 464
f 465 474 466
f 463 464 466
f 631 468 476
f 419 469 470
f 469 471 470
f 469 467 471
f 471 467 473
f 471 473 468
f 470 471 472
f 472 468 629
f 471 468 472
f 466 474 473
f 474 476 473
f 465 453 474
f 474 477 476
f 453 477 474
f 477 475 476
f 477 625 475
f 473 476 468
f 631 476 475
f 435 523 522
f 523 524 522
f 523 527 524
f 522 524 444
f 448 527 523
f 524 527 453
f 561 560 559
f 560 570 566
f 560 566 559
f 561 562 404
f 561 563 562
f 561 559 564
f 561 564 563
f 564 565 563
f 564 580 565
f 559 566 567
f 564 559 568
f 564 568 580
f 568 559 567
f 568 567 569
f 570 572 571
f 570 571 566
f 572 574 571
f 572 596 574
f 566 571 573
f 566 573 567
f 567 573 576
f 571 574 573
f 573 574 575
f 573 575 576
f 567 576 569
f 576 575 577
f 580 578 565
f 568 581 580
f 580 579 578
f 580 582 579
f 580 581 583
f 568 569 581
f 569 589 581
f 580 583 582
f 583 611 582
f 583 581 584
f 581 589 584
f 589 619 584
f 619 595 621
f 621 594 604
f 569 576 593
f 576 577 593
f 569 593 589
f 589 593 595
f 577 594 593
f 593 594 595
f 589 595 619
f 595 594 621
f 596 598 597
f 596 597 574
f 598 421 599
f 598 599 597
f 574 597 575
f 575 597 600
f 597 599 600
f 575 600 577
f 599 603 600
f 421 601 599
f 601 603 599
f 601 606 603
f 603 606 605
f 605 606 629
f 600 603 602
f 577 600 602
f 577 602 594
f 603 605 602
f 594 602 604
f 604 602 605
f 421 422 601
f 601 422 606
f 617 612 611
f 615 613 612
f 615 614 613
f 615 612 617
f 615 617 616
f 616 618 624
f 583 617 611
f 583 584 617
f 584 618 617
f 584 619 618
f 617 618 616
f 626 620 630
f 619 621 622
f 619 622 618
f 621 604 620
f 621 620 622
f 618 622 624
f 624 622 626
f 626 622 620
f 615 616 451
f 451 616 623
f 623 616 624
f 623 624 627
f 624 626 627
f 627 626 625
f 625 626 630
f 605 629 632
f 630 632 631
f 631 629 468
f 631 632 629
f 604 605 632
f 604 632 620
f 630 620 632
f 606 472 629
f 625 630 475
f 630 631 475

